<?xml version="1.0" standalone="no"?>
<!DOCTYPE svg PUBLIC "-//W3C//DTD SVG 20010904//EN"
 "http://www.w3.org/TR/2001/REC-SVG-20010904/DTD/svg10.dtd">
<svg version="1.0" xmlns="http://www.w3.org/2000/svg"
 width="616.000000pt" height="616.000000pt" viewBox="0 0 616.000000 616.000000"
 preserveAspectRatio="xMidYMid meet">

<g transform="translate(0.000000,616.000000) scale(0.100000,-0.100000)"
fill="#000000" stroke="none">
<path d="M2067 4462 c-15 -16 -17 -51 -17 -278 0 -282 4 -304 55 -304 51 0 55
22 55 300 0 215 -2 259 -16 278 -18 27 -55 29 -77 4z"/>
<path d="M2198 4469 c-17 -9 -18 -34 -18 -287 0 -293 1 -302 46 -302 52 0 54
10 54 305 0 261 -1 275 -19 285 -24 12 -41 12 -63 -1z"/>
<path d="M3976 4464 c-14 -13 -16 -54 -16 -288 0 -291 1 -296 50 -296 49 0 50
5 50 296 0 271 0 273 -22 288 -28 20 -43 20 -62 0z"/>
<path d="M4096 4458 c-14 -19 -16 -63 -16 -278 0 -278 4 -300 55 -300 51 0 55
22 55 302 0 245 -1 259 -20 278 -26 26 -55 25 -74 -2z"/>
<path d="M2597 4317 c-48 -45 -56 -92 -27 -152 l22 -45 -46 -212 c-26 -116
-45 -212 -44 -214 2 -1 43 7 91 19 70 17 89 25 92 42 3 11 16 93 29 183 23
150 27 166 55 197 79 90 23 215 -96 215 -33 0 -48 -6 -76 -33z"/>
<path d="M3505 4336 c-37 -16 -60 -42 -75 -80 -15 -41 -4 -82 37 -127 34 -38
36 -43 62 -216 l27 -177 89 -22 c49 -13 90 -22 92 -21 1 2 -19 98 -44 215 -45
207 -46 214 -30 248 10 19 17 49 17 67 0 36 -30 91 -57 105 -34 19 -87 22
-118 8z"/>
<path d="M1975 4318 c-3 -8 -4 -75 -3 -149 l3 -134 25 0 25 0 0 145 c0 143 0
145 -23 148 -12 2 -24 -3 -27 -10z"/>
<path d="M4215 4318 c-3 -8 -4 -75 -3 -149 l3 -134 25 0 25 0 0 145 c0 143 0
145 -23 148 -12 2 -24 -3 -27 -10z"/>
<path d="M1820 4190 c0 -18 7 -20 65 -20 58 0 65 2 65 20 0 18 -7 20 -65 20
-58 0 -65 -2 -65 -20z"/>
<path d="M2300 4190 c0 -19 6 -20 121 -20 109 0 120 2 117 18 -3 15 -18 17
-121 20 -112 3 -117 2 -117 -18z"/>
<path d="M2820 4190 c0 -20 7 -20 295 -20 288 0 295 0 295 20 0 20 -7 20 -295
20 -288 0 -295 0 -295 -20z"/>
<path d="M3697 4190 c-5 -19 0 -20 119 -20 117 0 124 1 124 20 0 19 -7 20
-119 20 -110 0 -119 -1 -124 -20z"/>
<path d="M4290 4190 c0 -18 7 -20 65 -20 58 0 65 2 65 20 0 18 -7 20 -65 20
-58 0 -65 -2 -65 -20z"/>
<path d="M3064 3849 c-23 -5 -59 -25 -82 -44 -53 -46 -76 -105 -70 -184 15
-214 305 -261 398 -64 75 160 -70 333 -246 292z"/>
<path d="M2690 3720 l-195 -47 0 -65 c0 -56 4 -70 29 -102 51 -67 84 -76 305
-76 l194 0 -40 29 c-79 57 -115 180 -78 268 8 19 15 37 15 39 0 9 -44 0 -230
-46z"/>
<path d="M3320 3766 c0 -2 7 -20 15 -39 39 -93 2 -207 -87 -273 l-33 -25 207
3 206 3 43 30 c55 39 79 86 79 152 0 61 29 47 -243 113 -167 40 -187 44 -187
36z"/>
<path d="M620 2965 l0 -65 305 0 305 0 0 65 0 65 -305 0 -305 0 0 -65z"/>
<path d="M1740 2620 l0 -410 70 0 70 0 0 410 0 410 -70 0 -70 0 0 -410z"/>
<path d="M2360 2965 l0 -65 330 0 330 0 0 65 0 65 -330 0 -330 0 0 -65z"/>
<path d="M3260 2972 l0 -60 183 -4 c164 -4 186 -7 225 -27 100 -52 95 -202 -8
-253 -30 -15 -64 -18 -217 -18 l-183 0 0 -200 0 -200 70 0 70 0 0 134 0 134
138 4 c145 5 184 15 250 65 75 56 112 164 93 269 -14 73 -66 142 -135 181 -51
28 -51 28 -268 31 l-218 4 0 -60z"/>
<path d="M4395 3013 c4 -10 45 -126 91 -258 46 -132 110 -307 142 -390 l58
-150 78 -3 c61 -2 77 0 74 10 -3 7 -69 192 -148 411 l-144 397 -79 0 c-71 0
-78 -2 -72 -17z"/>
<path d="M5050 2620 l0 -410 285 0 285 0 0 65 0 65 -215 0 -215 0 0 345 0 345
-70 0 -70 0 0 -410z"/>
<path d="M4302 2820 c-6 -14 -60 -149 -122 -300 -62 -151 -115 -283 -117 -292
-5 -16 3 -18 69 -18 l74 0 89 220 89 219 -24 68 c-13 37 -29 82 -36 98 l-12
30 -10 -25z"/>
<path d="M2620 2485 l0 -275 70 0 70 0 0 275 0 275 -70 0 -70 0 0 -275z"/>
<path d="M620 2450 l0 -240 65 0 65 0 0 175 0 175 210 0 210 0 0 65 0 65 -275
0 -275 0 0 -240z"/>
</g>
</svg>
